<?xml version="1.0" standalone="no"?>
<!DOCTYPE svg PUBLIC "-//W3C//DTD SVG 20010904//EN"
 "http://www.w3.org/TR/2001/REC-SVG-20010904/DTD/svg10.dtd">
<svg version="1.0" xmlns="http://www.w3.org/2000/svg"
 width="1869.000000pt" height="1869.000000pt" viewBox="0 0 1869.000000 1869.000000"
 preserveAspectRatio="xMidYMid meet">
<metadata>
Created by potrace 1.11, written by Peter Selinger 2001-2013
</metadata>
<g transform="translate(0.000000,1869.000000) scale(0.100000,-0.100000)"
fill="#000000" stroke="none">
<path d="M9614 18616 c-76 -76 -437 -424 -516 -498 -27 -25 -48 -49 -48 -55 0
-6 10 -17 22 -25 32 -21 26 -28 -170 -196 -15 -13 -38 -33 -52 -45 -44 -38
-267 -205 -325 -243 l-56 -37 26 -27 26 -27 -78 -70 c-103 -92 -335 -277 -451
-360 -51 -36 -95 -69 -98 -74 -3 -5 7 -19 21 -32 l27 -22 -49 -45 c-93 -85
-293 -245 -373 -300 -12 -8 -41 -29 -64 -45 -22 -17 -60 -43 -84 -59 -55 -38
-57 -41 -33 -67 l20 -21 -46 -42 c-51 -47 -196 -157 -200 -152 -3 3 -19 89
-28 151 -3 22 -7 51 -10 65 -2 14 -7 48 -10 75 -5 49 -13 110 -20 170 -2 17
-7 57 -10 90 -4 33 -8 76 -11 95 -2 19 -6 64 -9 100 -3 36 -8 83 -10 105 -5
49 -15 154 -20 215 -8 92 -16 186 -20 215 -2 17 -6 62 -10 100 -3 39 -8 84
-10 100 -2 17 -7 64 -11 105 -3 41 -8 77 -10 79 -3 4 -130 2 -254 -4 -90 -4
-337 -15 -445 -20 -49 -3 -153 -7 -230 -10 -77 -3 -176 -8 -220 -10 -119 -7
-374 -18 -424 -18 l-43 0 6 -61 c3 -34 8 -72 10 -86 12 -68 28 -172 31 -192 4
-37 15 -104 41 -258 14 -80 27 -161 30 -180 3 -19 21 -128 40 -242 19 -114 36
-224 39 -245 3 -21 8 -54 11 -73 3 -19 7 -44 9 -55 28 -175 34 -213 40 -263 2
-18 6 -45 9 -60 3 -15 8 -47 11 -72 3 -25 8 -56 10 -70 2 -14 6 -41 9 -60 14
-102 47 -350 52 -385 2 -22 6 -56 9 -75 4 -33 9 -68 20 -157 2 -21 7 -63 10
-93 3 -30 8 -72 11 -92 3 -21 2 -38 -3 -38 -4 0 -20 -11 -34 -24 -32 -29 -175
-128 -218 -151 l-33 -17 26 -27 26 -27 -37 -35 c-21 -19 -72 -61 -113 -94 -41
-33 -77 -62 -80 -65 -6 -7 -131 -101 -217 -165 -37 -27 -70 -51 -73 -53 -3 -2
8 -15 25 -29 l29 -26 -39 -34 c-65 -57 -289 -217 -447 -320 l-148 -96 31 -23
31 -23 -84 -62 c-96 -71 -444 -303 -565 -376 l-81 -50 31 -31 c17 -17 29 -33
26 -35 -77 -67 -352 -246 -545 -356 l-153 -88 29 -28 c23 -22 27 -31 18 -42
-21 -26 -381 -260 -528 -344 -80 -45 -147 -84 -150 -87 -3 -2 8 -15 24 -29
l30 -25 -25 -19 c-75 -59 -412 -276 -519 -335 -69 -37 -127 -69 -130 -72 -3
-2 8 -15 23 -28 16 -13 25 -28 22 -34 -8 -13 -347 -236 -485 -320 -58 -35
-107 -65 -110 -67 -17 -14 589 -479 919 -704 147 -101 127 -98 195 -27 75 80
206 218 421 443 94 98 209 218 256 268 l86 90 40 -64 c244 -389 493 -975 661
-1559 63 -219 159 -615 178 -740 3 -19 12 -66 19 -105 13 -61 44 -252 61 -370
4 -22 8 -49 10 -60 5 -32 33 -265 39 -330 4 -33 8 -73 10 -90 8 -71 15 -145
20 -215 3 -41 8 -104 11 -140 33 -393 38 -1338 9 -1790 -24 -378 -33 -504 -40
-563 -2 -23 -7 -76 -11 -117 -3 -41 -7 -86 -9 -100 -2 -14 -6 -59 -10 -100 -3
-41 -8 -86 -10 -100 -2 -14 -7 -50 -10 -80 -3 -30 -7 -66 -10 -80 -2 -14 -7
-53 -10 -87 -3 -34 -7 -70 -9 -80 -2 -10 -7 -45 -10 -78 -4 -33 -9 -71 -11
-85 -2 -14 -7 -45 -10 -70 -3 -25 -10 -72 -15 -105 -5 -33 -12 -82 -15 -110
-4 -27 -8 -57 -10 -65 -2 -8 -7 -37 -11 -65 -3 -27 -8 -59 -10 -70 -2 -11 -11
-63 -19 -115 -9 -52 -38 -218 -65 -369 -28 -151 -50 -275 -50 -276 0 -2 35 -6
77 -10 43 -4 85 -8 93 -10 8 -2 44 -6 80 -9 36 -4 76 -9 90 -11 14 -3 48 -7
75 -10 28 -3 71 -7 97 -11 l46 -5 11 68 c6 37 13 93 16 123 3 30 8 66 10 80 2
14 7 50 10 80 3 30 8 71 10 90 6 49 12 104 20 180 3 36 8 76 10 90 3 14 7 55
10 90 3 36 7 81 10 100 2 19 7 64 10 100 3 36 8 83 10 105 5 50 15 158 20 227
3 29 6 76 9 103 2 28 7 88 11 135 3 47 8 105 10 130 2 25 7 95 10 155 4 61 8
129 10 153 5 53 18 311 17 334 0 10 3 20 8 23 17 10 494 146 515 147 12 0 51
-19 87 -43 37 -24 102 -66 145 -94 43 -27 312 -199 598 -381 286 -182 576
-367 645 -411 l125 -79 7 -55 c4 -30 10 -81 13 -114 4 -33 8 -67 10 -75 1 -8
6 -42 10 -75 4 -33 8 -69 10 -80 1 -11 5 -45 9 -75 4 -30 9 -66 11 -80 2 -14
7 -43 9 -65 3 -22 12 -89 21 -150 9 -60 18 -126 21 -145 5 -42 12 -87 19 -119
2 -12 7 -42 9 -65 3 -22 7 -50 10 -61 2 -11 14 -87 27 -168 l24 -148 175 7
c96 4 204 8 238 8 l64 1 -5 35 c-8 51 -19 108 -67 355 -16 83 -31 164 -34 180
-12 63 -15 82 -30 165 -8 47 -24 135 -35 195 -30 166 -33 178 -36 200 -2 20
-34 204 -40 237 -2 9 -7 38 -11 65 -3 26 -8 57 -10 68 -6 29 -67 430 -78 510
-3 22 -15 103 -25 180 -11 77 -23 172 -26 210 -4 39 -8 77 -10 85 -2 8 -7 42
-10 75 -4 33 -8 74 -10 90 -2 17 -6 57 -9 90 -4 33 -9 78 -11 100 -4 40 -13
138 -20 245 -2 30 -7 119 -11 198 l-7 143 134 -3 134 -3 3 206 2 206 -1280 0
c-704 0 -1283 3 -1287 7 -5 4 -9 47 -9 94 -2 95 -14 398 -19 477 -1 28 -6 106
-10 175 -4 69 -8 141 -10 160 -2 19 -6 73 -9 120 -4 47 -8 103 -11 125 -7 65
-17 157 -20 200 -4 48 -13 132 -26 240 -5 44 -12 96 -14 115 -9 77 -42 305
-50 350 -2 14 -7 45 -10 70 -3 25 -8 52 -10 60 -2 8 -6 31 -9 50 -11 70 -49
277 -61 330 -3 14 -7 37 -10 51 -42 231 -165 697 -262 994 -135 415 -352 908
-508 1155 -26 41 -26 42 -8 63 68 82 1591 1592 1988 1973 33 31 119 114 191
183 72 69 202 194 289 276 87 83 177 168 200 190 99 94 481 454 525 495 78 72
280 260 355 330 80 75 267 248 316 292 33 29 202 185 238 218 29 27 213 195
296 271 27 25 67 61 89 80 21 19 48 43 60 54 12 11 60 54 105 95 46 41 98 89
116 105 18 17 65 59 106 95 40 36 85 76 100 90 15 14 42 39 61 55 18 17 94 84
168 150 74 66 137 122 140 125 3 3 102 91 220 195 118 105 233 206 255 226 22
20 69 62 105 92 l64 56 36 -26 c19 -15 41 -33 49 -41 8 -7 24 -20 36 -28 l22
-15 0 -1707 0 -1707 -45 -70 c-25 -38 -82 -126 -127 -195 -193 -295 -603 -924
-669 -1025 -39 -60 -112 -173 -163 -250 -85 -130 -90 -140 -70 -146 12 -3 35
-2 51 3 17 4 48 10 70 13 23 3 50 7 62 9 12 2 45 7 74 11 29 4 60 8 69 10 9 1
50 6 91 10 41 4 84 9 95 11 134 26 854 25 1120 -1 22 -2 69 -7 105 -10 36 -4
76 -8 90 -10 14 -2 48 -6 75 -10 64 -8 166 -22 231 -33 84 -14 88 -7 39 68
-47 71 -232 356 -335 514 -36 55 -111 170 -167 255 -166 255 -264 406 -388
596 -65 99 -128 196 -141 215 l-23 35 0 1705 0 1704 73 73 72 73 85 -72 c46
-39 109 -92 139 -118 30 -26 111 -96 180 -155 156 -134 152 -130 285 -245 155
-134 164 -142 195 -170 15 -14 40 -36 56 -49 61 -52 440 -385 449 -395 6 -6
48 -45 95 -86 47 -41 87 -77 90 -80 3 -3 43 -39 90 -80 80 -71 125 -111 196
-176 17 -16 71 -65 120 -109 49 -44 111 -101 139 -127 27 -26 61 -56 75 -68
14 -12 70 -63 125 -113 55 -51 131 -121 170 -156 38 -36 77 -72 86 -80 27 -26
117 -110 258 -241 74 -69 149 -138 166 -155 18 -16 95 -89 171 -161 76 -73
159 -151 184 -174 25 -23 128 -122 230 -220 102 -97 210 -201 240 -229 310
-295 1464 -1440 2000 -1985 138 -140 144 -148 130 -169 -137 -215 -317 -571
-415 -817 -31 -80 -61 -154 -66 -165 -48 -110 -206 -615 -264 -845 -11 -44
-95 -409 -98 -430 -3 -14 -8 -36 -11 -50 -3 -14 -8 -36 -10 -50 -3 -14 -10
-50 -16 -80 -16 -82 -68 -388 -76 -445 -3 -27 -8 -57 -9 -66 -2 -9 -6 -40 -10
-69 -4 -29 -8 -60 -10 -69 -2 -9 -6 -44 -10 -76 -4 -33 -9 -71 -11 -85 -4 -24
-9 -72 -19 -165 -11 -110 -25 -247 -30 -305 -3 -36 -8 -85 -10 -110 -2 -25 -7
-85 -10 -135 -3 -49 -8 -112 -10 -140 -2 -27 -6 -104 -10 -170 -3 -66 -8 -158
-10 -205 -3 -47 -7 -159 -11 -250 -3 -91 -8 -167 -10 -169 -2 -2 -581 -5
-1286 -5 l-1281 -1 0 -187 c1 -104 2 -196 2 -206 1 -17 11 -18 137 -15 l135 3
-6 -125 c-3 -70 -7 -150 -10 -178 -2 -29 -6 -88 -10 -132 -3 -44 -8 -96 -10
-115 -2 -19 -7 -69 -10 -110 -4 -41 -8 -86 -10 -100 -2 -14 -6 -50 -10 -80 -8
-71 -15 -125 -21 -175 -2 -22 -7 -56 -9 -75 -2 -19 -11 -87 -20 -150 -9 -63
-18 -133 -21 -155 -3 -22 -14 -96 -24 -165 -10 -69 -21 -145 -25 -170 -3 -25
-8 -52 -10 -60 -2 -8 -7 -35 -10 -60 -5 -37 -25 -164 -39 -245 -8 -43 -16 -91
-21 -120 -21 -129 -28 -169 -40 -230 -7 -38 -16 -88 -19 -110 -4 -22 -13 -74
-21 -115 -8 -41 -17 -91 -20 -110 -3 -19 -8 -46 -10 -60 -3 -14 -7 -36 -10
-50 -27 -141 -51 -268 -75 -385 -15 -77 -26 -142 -24 -144 4 -4 207 -13 363
-15 94 -1 114 2 116 14 2 8 6 35 9 60 4 25 9 56 11 70 3 14 7 36 10 50 3 14
12 72 20 130 9 58 18 118 21 134 9 53 42 280 49 335 4 30 8 61 10 70 2 9 6 44
10 76 4 33 9 68 11 79 2 10 6 44 10 75 3 31 8 70 10 86 2 17 11 89 20 160 l17
130 241 153 c133 85 489 311 791 504 303 193 557 351 565 350 18 -1 513 -142
519 -147 4 -4 5 -27 16 -220 4 -66 8 -149 10 -185 2 -36 6 -96 9 -135 3 -38 8
-108 11 -155 3 -47 8 -107 10 -135 3 -27 7 -86 10 -130 4 -44 8 -93 10 -110 2
-16 7 -66 10 -110 4 -44 8 -93 10 -110 4 -32 14 -132 20 -205 2 -25 7 -70 10
-100 3 -30 8 -75 11 -100 8 -82 16 -145 19 -170 2 -14 6 -52 10 -85 3 -33 8
-71 10 -85 2 -14 6 -52 10 -85 4 -32 9 -68 11 -78 4 -21 16 -135 17 -155 0
-12 26 -12 142 3 54 7 119 14 180 21 33 3 67 8 75 9 8 2 49 6 92 10 88 8 82
-13 48 160 -11 55 -24 127 -30 160 -5 33 -12 71 -15 85 -6 27 -10 52 -20 120
-4 25 -9 54 -11 65 -10 54 -24 135 -29 175 -4 25 -15 97 -25 160 -10 63 -21
138 -25 165 -6 48 -12 93 -20 145 -2 14 -7 48 -10 75 -4 28 -8 61 -10 75 -3
14 -7 50 -10 80 -3 30 -7 65 -9 77 -3 12 -8 53 -11 90 -4 37 -8 79 -10 93 -10
72 -39 368 -50 510 -3 41 -8 95 -10 120 -2 25 -7 90 -10 145 -3 55 -7 132 -10
170 -28 397 -33 1052 -10 1535 8 176 22 401 30 470 2 19 7 69 10 110 4 41 8
89 10 105 3 17 7 55 9 85 3 30 10 87 15 125 5 39 13 95 16 125 3 30 8 66 10
80 2 14 11 72 20 130 25 164 89 510 120 640 2 8 8 38 15 65 87 389 262 940
390 1230 9 22 37 85 61 140 92 211 242 491 388 723 33 52 34 53 55 35 11 -10
23 -21 26 -24 3 -4 96 -100 207 -215 208 -216 227 -236 478 -498 82 -86 153
-156 158 -156 12 0 521 393 617 476 14 12 63 54 110 94 47 40 111 97 143 126
l58 52 -228 173 c-125 95 -252 192 -281 217 l-53 45 21 22 c17 18 18 24 7 28
-29 11 -534 384 -556 411 -10 11 -8 17 9 29 20 14 15 19 -117 113 -189 134
-434 316 -456 339 -18 18 -18 19 3 35 l23 17 -64 44 c-136 92 -432 308 -558
407 l-24 19 21 19 c12 10 22 21 22 24 0 4 -35 31 -77 60 -192 133 -373 271
-597 452 -20 16 -20 17 -1 38 12 13 15 24 9 28 -164 112 -487 350 -579 426
-29 25 -29 25 -10 46 10 11 16 22 14 23 -2 2 -62 44 -134 92 -71 49 -201 141
-289 206 -157 116 -158 118 -137 135 12 10 21 21 21 25 0 4 -55 47 -122 95
-97 69 -461 342 -534 400 -15 12 -9 44 7 44 26 0 -6 28 -148 130 -87 63 -240
174 -340 249 l-182 136 25 26 c18 19 22 28 12 31 -13 5 -283 198 -323 230 -11
9 -74 58 -140 109 -66 51 -122 94 -125 96 -2 2 1 13 8 23 7 11 12 22 12 24 0
2 -66 50 -147 107 -278 194 -500 367 -486 378 5 3 14 13 21 22 11 14 -2 26
-95 89 -60 41 -118 81 -129 89 -12 9 -32 23 -44 31 -60 41 -303 219 -341 251
l-43 36 17 27 c10 15 16 30 13 34 -2 4 -31 25 -63 47 -32 22 -60 42 -63 45 -3
3 -52 39 -110 80 -166 117 -447 327 -455 339 -4 7 1 21 11 32 21 23 29 14
-111 134 -32 28 -63 55 -69 60 -19 19 -290 260 -325 290 -19 17 -39 35 -45 41
-47 45 -118 104 -124 103 -4 -1 -39 -34 -78 -73z m-4319 -11910 c193 -4 508
-9 700 -12 193 -4 410 -7 483 -8 125 -1 132 -2 133 -21 1 -11 3 -63 4 -115 1
-52 4 -132 5 -178 2 -46 -1 -87 -6 -91 -5 -5 -36 -16 -69 -24 -33 -8 -107 -29
-165 -46 -58 -16 -125 -35 -150 -42 -58 -16 5 2 -555 -158 -269 -78 -493 -141
-497 -141 -7 0 -350 216 -415 261 -23 16 -45 29 -50 29 -4 1 -21 11 -37 24
-26 22 -29 29 -28 87 0 35 1 150 1 255 l1 192 148 -4 c81 -1 305 -5 497 -8z
m9454 -247 l0 -256 -82 -52 c-45 -29 -163 -104 -262 -167 l-180 -116 -135 38
c-195 54 -206 57 -415 117 -104 30 -203 58 -220 62 -41 11 -20 5 -315 90 -146
43 -269 78 -275 79 -5 2 -28 8 -51 14 l-41 12 4 117 c2 65 5 156 6 203 l2 85
145 1 c80 1 296 5 480 8 184 3 486 8 670 12 184 3 336 6 337 7 1 1 76 2 166 3
l165 0 1 -257z m-8114 -424 c13 -237 23 -398 30 -465 2 -25 7 -83 10 -130 4
-47 8 -96 10 -110 2 -14 6 -65 10 -114 4 -50 8 -97 10 -105 1 -9 6 -52 9 -96
4 -44 9 -93 12 -109 l5 -28 -38 23 c-21 13 -69 44 -108 69 -38 25 -78 49 -87
55 -9 5 -49 30 -88 55 -39 25 -89 56 -110 70 -22 14 -121 77 -220 140 -99 63
-188 120 -198 125 -9 6 -19 12 -22 15 -3 3 -48 32 -100 65 -52 32 -131 82
-175 110 -44 29 -120 78 -169 109 -48 31 -86 59 -84 62 5 5 1291 373 1295 370
1 0 4 -51 8 -111z m6460 19 c165 -47 314 -89 330 -93 154 -40 644 -185 640
-190 -2 -4 -50 -36 -107 -71 -57 -36 -107 -68 -113 -73 -8 -6 -1097 -700
-1164 -741 -9 -6 -11 4 -7 41 3 26 8 80 12 118 3 39 8 77 9 85 2 8 6 53 10
100 4 47 8 103 10 125 2 22 6 74 9 115 4 41 9 106 12 145 3 38 7 99 9 135 2
36 7 110 10 165 4 55 8 125 10 155 2 30 3 60 4 67 1 7 7 10 14 8 6 -3 147 -43
312 -91z m-8154 -190 c28 -18 51 -36 52 -40 1 -5 -18 -14 -43 -21 -46 -12
-130 -36 -253 -72 l-67 -20 6 162 c3 89 8 165 10 169 3 4 59 -28 125 -70 66
-42 142 -91 170 -108z m9816 113 c1 -34 4 -108 6 -164 l5 -101 -27 8 c-14 5
-93 28 -176 50 -82 23 -154 45 -158 50 -4 4 34 34 85 66 51 32 129 82 173 111
44 28 82 50 85 47 2 -3 6 -33 7 -67z"/>
<path d="M8743 12334 c42 -15 319 -69 407 -80 30 -3 62 -8 71 -9 9 -2 56 -7
105 -11 49 -3 105 -8 124 -10 56 -4 471 -5 515 0 22 2 85 7 140 11 55 4 108 9
117 10 9 2 43 6 76 10 75 7 373 59 414 71 9 3 26 7 39 9 12 2 23 6 26 8 2 3
-463 4 -1034 4 -878 0 -1032 -2 -1000 -13z"/>
<path d="M7270 11904 c-19 -8 -43 -23 -53 -32 -43 -38 -90 -134 -101 -206 -4
-21 -8 -41 -10 -45 -3 -4 -8 -44 -11 -89 -7 -77 -6 -82 12 -82 30 0 53 -70 53
-158 0 -41 9 -108 21 -154 19 -71 20 -89 10 -134 -8 -35 -9 -59 -2 -71 6 -12
6 -25 0 -35 -6 -11 -5 -40 4 -81 7 -36 10 -74 6 -85 -4 -11 -10 -44 -13 -73
-3 -30 -8 -81 -12 -114 -3 -33 -7 -94 -9 -135 -3 -100 -12 -127 -40 -134 l-24
-6 18 -53 c22 -65 18 -127 -9 -122 -17 3 -19 -7 -22 -109 -3 -110 -4 -113 -36
-154 -18 -23 -31 -46 -27 -51 3 -5 -8 -25 -25 -44 -30 -35 -38 -57 -20 -57 6
0 10 -15 10 -34 0 -24 -7 -40 -24 -53 -13 -11 -27 -34 -31 -52 -5 -24 -15 -37
-35 -44 -21 -8 -30 -20 -35 -43 -3 -18 -14 -43 -25 -57 -24 -30 -92 -67 -125
-67 -13 0 -28 -7 -33 -16 -5 -9 -12 -15 -15 -15 -43 6 -69 -1 -74 -19 -4 -13
-14 -20 -32 -20 -14 -1 -57 -3 -96 -6 -131 -10 -449 -4 -492 10 -12 4 -47 9
-77 11 -30 2 -60 6 -66 10 -13 8 -44 14 -104 21 -27 3 -70 13 -95 23 -88 35
-124 43 -194 46 -84 3 -123 -8 -156 -43 -20 -23 -23 -33 -18 -79 9 -90 72
-163 140 -163 24 0 32 -9 28 -32 0 -5 28 -8 63 -8 58 0 67 -3 86 -27 20 -25
28 -28 83 -28 61 0 62 0 72 -32 11 -39 17 -39 108 -14 67 18 76 18 157 -5 14
-4 41 -25 60 -47 l35 -39 46 35 c62 47 107 53 197 28 77 -21 77 -21 177 24 20
9 51 12 90 8 46 -4 72 0 111 15 29 12 61 18 71 16 13 -4 43 9 84 36 35 23 112
73 171 110 105 68 107 70 152 152 35 65 54 89 84 106 35 19 39 25 37 57 -2 26
5 45 31 78 19 24 46 49 60 55 14 7 22 17 19 22 -11 18 -14 50 -4 55 5 4 9 23
9 44 0 32 7 45 39 74 28 25 36 38 28 46 -7 7 -10 46 -8 102 2 70 7 98 23 125
20 34 20 46 4 123 -16 72 -9 110 36 208 6 12 8 37 4 57 -7 34 -6 35 31 41 21
4 42 7 46 9 5 1 -7 21 -27 46 -19 24 -32 49 -27 55 4 5 6 42 5 80 -3 100 -4
200 -2 360 1 77 -1 174 -5 216 -4 51 -2 95 8 135 13 57 12 96 -5 119 -4 6 -10
43 -13 84 -3 41 -11 79 -16 84 -7 7 -3 23 10 48 10 21 19 42 19 47 0 4 -18 19
-40 31 -23 13 -52 40 -65 60 -39 63 -130 88 -205 55z"/>
<path d="M8218 11125 c-3 -3 -85 -16 -105 -18 -23 -1 -60 -52 -77 -104 -22
-71 -20 -120 8 -173 17 -32 25 -66 28 -117 2 -40 1 -73 -2 -73 -3 0 -13 -7
-23 -14 -17 -13 -17 -17 12 -81 17 -37 31 -72 31 -77 0 -6 -15 -8 -37 -4 -21
4 -69 8 -108 11 -38 2 -81 6 -94 9 -18 4 -35 -6 -77 -46 -30 -28 -54 -55 -54
-60 0 -4 11 -25 24 -46 14 -20 28 -55 32 -77 13 -75 62 -125 123 -125 12 0 39
-11 59 -25 30 -20 46 -24 73 -19 23 4 30 3 20 -4 -10 -7 -12 -20 -6 -48 14
-70 10 -182 -8 -202 -13 -14 -14 -25 -6 -61 7 -30 6 -54 -1 -74 -8 -24 -7 -35
7 -56 10 -14 16 -34 14 -44 -3 -23 17 -150 31 -197 6 -19 24 -63 39 -98 16
-34 29 -67 29 -72 0 -5 15 -26 33 -46 17 -21 50 -61 72 -90 32 -42 58 -62 130
-99 50 -26 104 -49 120 -51 82 -12 168 -11 217 2 29 7 66 14 82 14 16 0 44 11
62 25 18 14 36 25 40 25 22 0 93 46 114 75 14 19 36 40 49 47 54 29 95 195 58
232 -22 22 -75 46 -122 55 -52 10 -110 -12 -160 -58 -16 -16 -41 -31 -55 -34
-14 -4 -41 -20 -60 -37 -28 -25 -42 -30 -87 -30 -65 0 -121 31 -129 71 -4 19
-14 29 -33 33 -21 4 -32 19 -58 78 -37 85 -37 89 -38 398 l0 235 36 12 c27 9
46 9 72 1 30 -9 38 -8 66 13 22 16 47 24 82 25 27 1 57 5 67 9 9 4 44 8 77 10
33 1 77 9 99 19 31 13 46 14 75 5 33 -10 43 -7 114 27 43 20 97 54 119 74 35
31 41 42 40 73 -2 44 -25 83 -63 102 -33 18 -303 22 -389 6 -30 -5 -98 -7
-150 -5 -52 3 -116 5 -142 6 -27 0 -45 5 -42 10 3 5 -2 18 -11 28 -13 15 -16
29 -11 58 3 21 2 52 -3 68 -7 24 -4 36 9 55 10 13 16 27 14 31 -3 4 -7 69 -9
144 -6 181 -21 226 -89 261 -23 12 -120 25 -128 18z"/>
<path d="M12227 11024 c-1 -1 -14 -5 -27 -7 -108 -20 -200 -71 -200 -110 0 -7
-12 -24 -26 -38 -48 -45 -26 -143 59 -264 27 -38 51 -72 54 -74 2 -3 34 10 71
27 37 17 85 35 107 38 22 4 54 15 71 25 17 9 48 17 68 17 20 0 69 2 109 5 39
3 63 4 52 1 -24 -7 -85 -63 -85 -79 0 -7 -13 -38 -30 -71 -29 -58 -29 -61 -33
-261 -3 -110 -8 -207 -12 -214 -5 -6 -10 -30 -11 -53 -11 -132 -28 -174 -71
-173 -46 0 -268 -15 -272 -19 -2 -2 19 -36 48 -76 28 -40 67 -96 87 -125 35
-52 38 -54 127 -69 48 -8 52 -16 26 -48 l-21 -27 30 -57 c25 -46 30 -68 29
-117 0 -33 8 -87 18 -120 10 -33 19 -64 21 -70 10 -45 37 -84 124 -178 l35
-38 92 32 c107 35 148 61 181 109 20 29 23 44 19 86 -6 64 -19 90 -57 109 -27
14 -37 40 -31 78 1 4 -6 38 -15 75 -15 61 -15 72 -1 119 10 32 12 55 6 58 -22
14 -6 35 34 46 57 17 59 17 87 3 22 -11 30 -9 71 22 25 18 64 36 85 39 138 21
209 38 235 56 14 10 39 17 55 15 17 -2 47 7 74 23 89 50 126 65 168 67 24 2
49 7 55 12 7 5 27 13 45 17 18 4 52 22 76 40 24 18 58 36 76 40 40 9 121 57
171 100 20 18 52 35 72 39 34 6 37 10 37 41 0 25 7 39 30 57 21 16 37 45 55
97 l25 74 -38 66 c-26 46 -38 77 -36 98 2 30 -2 35 -77 78 -54 31 -88 58 -105
85 -26 40 -35 44 -85 40 -26 -1 -44 23 -64 88 -7 24 -13 25 -67 13 -29 -7 -43
-5 -68 10 -17 11 -37 19 -45 19 -8 0 -32 9 -52 20 -21 11 -50 20 -66 20 -16 0
-49 12 -74 27 -25 14 -61 27 -79 28 -19 2 -40 7 -47 13 -6 5 -43 10 -81 11
-38 1 -90 7 -115 15 -25 7 -55 10 -66 6 -13 -4 -29 0 -45 11 -14 10 -45 21
-70 24 -25 3 -56 7 -70 10 -66 12 -115 16 -233 20 -71 3 -134 8 -140 12 -11 7
-263 14 -270 7z m429 -371 c-8 -8 -66 -10 -66 -2 0 4 10 9 23 11 24 4 51 -2
43 -9z m195 -19 c24 -8 64 -18 89 -21 25 -3 54 -10 65 -16 11 -6 34 -12 51
-12 18 -1 44 -9 58 -19 19 -12 40 -16 69 -13 35 4 52 -1 100 -31 l57 -35 35
19 34 18 103 -51 c57 -28 120 -57 140 -63 21 -6 41 -16 44 -22 3 -5 30 -25 60
-44 30 -19 54 -41 54 -49 0 -23 -32 -55 -56 -55 -26 0 -74 -36 -74 -56 0 -8
-10 -14 -23 -14 -12 0 -28 -9 -34 -19 -14 -23 -94 -61 -119 -57 -10 2 -36 -8
-58 -21 -28 -15 -57 -23 -91 -23 -34 0 -63 -8 -92 -25 -24 -13 -55 -26 -70
-28 -16 -3 -53 -17 -84 -30 -56 -26 -57 -26 -75 -6 -23 25 -32 24 -74 -11 -19
-17 -43 -30 -55 -30 -11 0 -37 -9 -58 -20 -20 -11 -43 -20 -52 -20 -22 0 -31
68 -13 101 9 15 14 38 11 52 -4 18 1 28 16 36 16 9 21 21 21 52 0 37 3 41 38
56 20 8 39 17 41 19 2 2 -9 21 -26 42 -57 71 -58 77 -27 146 50 111 29 202
-59 244 -37 19 -39 21 -16 22 15 0 46 -7 70 -16z"/>
<path d="M9676 10885 c-21 -7 -53 -27 -70 -43 -28 -27 -38 -29 -106 -30 -125
-2 -171 -11 -220 -44 -54 -37 -76 -61 -97 -108 -39 -89 0 -180 100 -231 21
-11 50 -37 65 -59 15 -22 32 -39 37 -39 6 0 32 27 59 60 47 56 79 73 88 47 4
-11 2 -67 -4 -128 0 -8 2 -28 5 -45 26 -120 27 -128 16 -141 -6 -7 -7 -27 -4
-46 4 -22 0 -49 -10 -75 -16 -40 -16 -44 1 -72 17 -29 17 -33 2 -58 -12 -21
-15 -50 -13 -113 1 -51 -3 -106 -12 -138 -9 -33 -12 -64 -7 -85 4 -17 7 -36 5
-42 -10 -35 -3 -82 27 -198 38 -150 36 -138 29 -197 -4 -25 -9 -70 -13 -100
-3 -30 -7 -59 -8 -65 -2 -16 171 -8 225 10 49 17 98 62 100 93 2 45 8 82 23
140 9 34 15 66 12 71 -3 4 -8 36 -12 72 -3 35 -9 84 -13 109 -6 37 -5 293 1
338 2 15 18 16 18 2 0 -19 62 -38 111 -35 33 3 52 -1 65 -13 11 -10 39 -33 64
-52 24 -19 60 -51 80 -71 19 -19 60 -55 90 -80 30 -24 69 -57 85 -72 17 -15
42 -34 56 -42 15 -8 42 -33 60 -56 35 -44 92 -84 199 -139 36 -19 84 -51 107
-72 24 -21 49 -38 56 -38 8 0 26 -9 41 -21 15 -12 41 -22 59 -24 54 -5 179
-44 200 -62 14 -14 37 -18 98 -18 67 -1 82 -4 102 -23 13 -12 27 -19 30 -15 4
4 23 -9 42 -27 l35 -34 32 30 c18 16 35 33 39 37 3 4 17 -2 32 -13 l27 -21 47
32 c45 31 48 32 99 21 41 -8 60 -7 92 3 22 8 62 17 88 20 30 4 55 14 66 26 9
10 20 19 26 19 9 0 127 87 174 128 15 13 31 36 36 51 12 35 -7 109 -43 160
-32 48 -82 101 -93 100 -4 0 -24 -22 -45 -50 -29 -39 -43 -49 -66 -49 -19 0
-34 -8 -44 -24 -10 -15 -29 -25 -54 -29 -48 -7 -91 -15 -123 -23 -14 -3 -82
-8 -152 -9 -111 -3 -129 -1 -137 13 -6 11 -20 16 -41 14 -26 -2 -32 2 -41 27
l-10 29 -49 -26 -49 -26 -78 24 c-117 36 -220 91 -291 156 -51 46 -70 58 -100
59 -19 1 -38 7 -40 14 -9 28 -126 154 -172 186 -22 15 -38 30 -36 33 3 2 25
-3 50 -11 38 -13 47 -13 56 -2 6 8 18 11 25 9 7 -3 24 1 37 10 22 14 27 13 67
-10 l44 -24 58 50 c34 29 67 50 81 50 13 0 39 5 58 10 19 6 48 13 65 16 16 3
36 11 45 18 8 7 37 19 64 25 27 7 62 19 77 27 25 13 65 20 121 23 23 1 213
195 234 239 31 65 34 99 14 158 -23 66 -66 129 -122 180 -23 22 -56 53 -74 71
-24 23 -44 33 -77 36 -24 3 -71 16 -103 31 -33 14 -113 46 -179 72 -115 44
-125 46 -235 48 -63 2 -131 6 -150 10 -19 4 -118 9 -220 11 -102 2 -201 7
-220 11 -19 4 -55 7 -80 7 -86 -2 -235 -2 -268 -1 -25 1 -34 7 -38 24 -5 21
-11 22 -97 22 -52 0 -109 -5 -131 -13z m584 -384 c117 4 187 2 430 -16 47 -3
109 -8 138 -9 37 -3 60 -10 75 -24 14 -13 40 -23 68 -25 25 -3 55 -9 66 -15
10 -6 37 -12 60 -15 22 -2 54 -13 71 -25 16 -12 36 -22 44 -22 7 0 31 -15 53
-34 l40 -34 -50 -15 c-28 -8 -77 -28 -110 -45 -59 -29 -132 -51 -190 -57 -16
-2 -52 -6 -80 -9 -27 -3 -66 -10 -85 -16 -19 -5 -60 -16 -89 -25 -58 -16 -249
-22 -314 -10 -30 6 -37 4 -37 -9 0 -9 -6 -17 -12 -17 -79 -7 -104 -6 -113 4
-5 7 -18 13 -27 14 -34 1 -38 3 -35 15 4 24 -156 7 -185 -19 -20 -18 -33 -12
-54 29 -16 30 -15 63 1 297 4 59 17 74 54 67 13 -2 36 1 51 8 15 6 58 9 96 7
38 -2 98 -2 134 0z m-300 -435 c0 -2 -8 -10 -17 -17 -16 -13 -17 -12 -4 4 13
16 21 21 21 13z m-38 -58 c-7 -7 -12 -8 -12 -2 0 14 12 26 19 19 2 -3 -1 -11
-7 -17z"/>
<path d="M6255 8496 c0 -129 3 -238 7 -242 5 -4 604 -8 1332 -8 728 -1 1327
-3 1329 -6 3 -3 8 -29 11 -58 3 -29 8 -63 11 -75 2 -12 7 -44 10 -72 3 -27 13
-90 21 -140 8 -49 17 -103 20 -120 3 -16 11 -66 19 -110 8 -44 16 -91 19 -105
14 -85 84 -411 118 -555 43 -183 41 -176 53 -220 73 -279 118 -440 172 -615
15 -47 28 -89 29 -95 1 -5 28 -86 60 -179 l58 -169 -18 -51 c-24 -70 -115
-314 -131 -351 -8 -16 -36 -84 -63 -150 -263 -632 -617 -1219 -1012 -1678 -56
-65 -101 -120 -99 -122 2 -1 56 -39 120 -83 l117 -79 1263 1 1264 1 118 82
118 81 -33 39 c-18 21 -40 45 -48 53 -9 8 -54 62 -101 120 -283 347 -525 729
-743 1170 -99 201 -119 244 -178 385 -16 39 -33 79 -38 90 -23 50 -82 201
-124 320 -26 72 -51 137 -56 146 -5 10 9 66 42 165 78 230 130 397 188 604 34
121 52 185 55 200 2 8 20 80 40 160 20 80 39 156 41 170 3 14 11 50 19 80 14
53 79 365 89 425 3 17 8 41 11 55 2 14 7 37 9 53 3 15 7 35 10 45 2 9 7 39 11
65 3 26 10 71 16 100 5 29 12 68 15 87 3 19 7 46 9 60 3 14 7 45 10 70 3 25
12 81 18 125 l13 80 1327 1 c730 0 1330 4 1334 7 5 5 8 376 4 460 -1 16 -172
17 -3443 17 l-3443 0 0 -234z m3810 -266 c1 -8 -1 -42 -6 -75 -4 -33 -11 -87
-14 -120 -3 -33 -7 -71 -9 -85 -3 -14 -7 -47 -10 -75 -4 -27 -8 -61 -11 -75
-2 -14 -7 -43 -10 -65 -3 -22 -7 -51 -10 -65 -2 -14 -7 -43 -10 -65 -5 -38
-31 -192 -41 -245 -2 -14 -7 -41 -10 -60 -3 -19 -7 -42 -9 -50 -2 -8 -7 -31
-10 -50 -12 -68 -74 -356 -105 -485 -17 -71 -33 -137 -35 -145 -13 -59 -69
-258 -76 -270 -7 -12 -8 -12 -9 4 0 10 -9 50 -21 89 -11 38 -22 77 -24 86 -2
9 -17 70 -34 136 -26 104 -80 340 -95 415 -2 14 -12 63 -21 110 -9 47 -19 96
-21 110 -3 14 -12 63 -21 110 -9 47 -17 95 -18 107 -2 12 -6 34 -9 50 -3 15
-8 42 -10 58 -7 46 -18 118 -21 136 -2 9 -6 40 -10 69 -4 29 -8 61 -10 71 -2
10 -6 44 -10 76 -3 32 -8 73 -11 91 -9 67 -13 99 -19 163 l-7 66 368 -1 c318
-1 367 -3 369 -16z m-341 -3018 c68 -168 254 -558 351 -737 98 -181 221 -385
336 -559 l127 -191 -836 -3 c-459 -1 -837 0 -839 2 -3 2 22 42 54 87 249 355
524 857 721 1319 22 52 43 103 46 113 9 28 20 20 40 -31z"/>
<path d="M1242 2686 c-4 -8 -6 -110 -3 -183 l1 -21 8460 0 8460 0 0 106 0 107
-8456 0 c-5218 0 -8458 -3 -8462 -9z"/>
<path d="M10165 2091 c-3 -16 -17 -39 -31 -51 -13 -13 -24 -28 -24 -33 0 -12
-42 -46 -57 -47 -7 0 -13 -8 -13 -19 0 -10 -8 -29 -19 -42 -25 -33 -49 -88
-55 -126 -3 -27 1 -37 26 -58 l30 -25 42 35 c77 66 89 75 101 75 6 0 50 37 98
83 75 71 87 87 87 116 0 42 -42 83 -107 105 -63 22 -70 20 -78 -13z"/>
<path d="M15660 2085 c-6 -19 -15 -35 -20 -35 -5 0 -18 -16 -30 -35 -12 -19
-26 -33 -31 -29 -5 3 -9 -2 -9 -10 0 -9 -7 -16 -15 -16 -8 0 -15 -8 -15 -19 0
-10 -7 -24 -14 -31 -21 -17 -54 -89 -61 -130 -4 -28 0 -40 21 -63 27 -30 35
-28 75 15 9 10 21 18 26 18 5 0 20 11 33 25 13 14 30 25 39 25 9 0 32 17 52
38 20 20 56 55 82 77 25 22 48 51 52 64 13 50 -26 95 -110 128 -50 19 -63 16
-75 -22z"/>
<path d="M5968 1855 l-27 -45 19 -33 c18 -30 26 -62 45 -177 3 -19 8 -36 10
-39 3 -2 0 -10 -6 -17 -7 -8 -7 -19 -1 -31 16 -29 22 -85 11 -106 -6 -10 -7
-26 -3 -35 9 -21 7 -160 -3 -175 -3 -6 -8 -27 -9 -46 -6 -97 -16 -175 -22
-190 -13 -27 -7 -302 8 -346 11 -34 50 -98 50 -82 0 3 16 1 36 -5 34 -9 37 -7
70 29 19 21 46 57 60 81 14 23 32 42 40 42 10 0 14 12 14 38 0 28 7 45 24 62
14 12 28 35 31 51 4 16 10 29 14 29 4 0 15 16 24 35 9 19 21 35 26 35 6 0 13
17 16 38 9 54 25 92 45 102 9 5 25 27 35 49 11 25 25 41 35 41 10 0 29 17 43
38 28 39 63 67 70 54 9 -15 5 -442 -4 -448 -13 -8 -11 -48 3 -62 7 -7 11 -29
10 -49 -4 -50 25 -137 55 -165 35 -33 111 -32 147 1 14 13 28 36 31 52 7 32
-10 95 -32 120 -14 16 -15 50 -14 274 1 338 -14 419 -95 488 -49 41 -78 39
-174 -10 -50 -25 -90 -52 -90 -59 0 -8 -7 -14 -16 -14 -20 0 -69 -50 -66 -66
1 -6 -9 -16 -23 -22 -15 -7 -22 -17 -19 -26 3 -8 -8 -28 -25 -45 -17 -18 -31
-38 -31 -46 0 -7 -4 -17 -10 -20 -5 -3 -10 -13 -10 -21 0 -8 -8 -27 -17 -41
-10 -15 -28 -49 -41 -77 l-23 -51 6 58 c2 32 7 63 10 67 3 5 8 85 11 177 7
191 7 189 0 303 -12 187 -13 197 -35 219 -12 12 -21 27 -22 34 0 6 -18 27 -41
45 -29 23 -50 32 -77 32 -32 -1 -39 -6 -63 -45z"/>
<path d="M11918 1857 l-28 -44 21 -43 c11 -23 23 -52 25 -64 13 -63 16 -86 19
-136 2 -30 7 -76 13 -101 5 -29 5 -53 0 -64 -5 -9 -7 -24 -3 -33 11 -26 6
-142 -7 -187 -4 -11 -9 -63 -13 -115 -3 -52 -10 -99 -14 -105 -10 -13 -7 -300
4 -340 12 -47 44 -94 63 -93 9 0 29 -2 43 -6 23 -7 30 -3 45 23 10 17 21 31
25 31 4 0 21 23 39 50 18 28 37 50 44 50 7 0 13 17 15 43 1 30 9 48 25 62 13
11 27 32 30 48 4 15 11 27 16 27 6 0 10 6 10 14 0 8 11 27 24 43 20 25 43 86
38 105 -1 3 11 20 26 36 15 16 36 45 47 66 11 20 26 36 35 36 8 0 30 21 49 45
18 25 41 45 50 45 15 0 16 -22 16 -217 -1 -148 -4 -225 -12 -239 -10 -17 -9
-25 2 -40 8 -11 15 -40 15 -65 1 -133 80 -215 174 -179 58 22 76 110 36 177
-20 34 -21 53 -26 341 -3 249 -7 310 -19 328 -8 13 -15 30 -15 38 0 22 -87 93
-119 98 -41 6 -201 -73 -201 -99 0 -7 -11 -13 -25 -13 -15 0 -25 -6 -25 -14 0
-8 -9 -22 -21 -30 -12 -8 -19 -19 -15 -24 3 -5 -6 -14 -20 -21 -16 -7 -24 -17
-21 -25 3 -8 -7 -27 -23 -43 -16 -15 -30 -35 -30 -45 0 -9 -4 -18 -10 -20 -5
-1 -11 -13 -13 -25 -1 -11 -8 -27 -14 -35 -21 -27 -61 -117 -55 -124 4 -4 1
-4 -6 0 -8 5 -10 16 -6 29 4 12 8 33 9 47 1 14 4 36 8 50 3 14 9 97 12 185 7
180 7 167 1 255 -3 36 -8 101 -11 145 -4 57 -11 85 -24 100 -10 11 -21 29 -25
40 -8 28 -84 75 -121 75 -25 0 -35 -8 -57 -43z"/>
<path d="M4078 1775 c-1 -1 -19 -5 -39 -8 -46 -6 -58 -13 -69 -43 -18 -46 -19
-77 -4 -105 20 -40 25 -116 8 -123 -12 -5 -11 -12 2 -46 9 -23 15 -43 12 -45
-2 -3 -35 -1 -73 4 -66 7 -69 7 -99 -19 l-30 -28 18 -43 c10 -24 22 -54 27
-66 5 -14 22 -26 48 -33 22 -6 43 -15 46 -20 4 -6 18 -7 33 -3 23 5 25 4 15
-9 -7 -8 -10 -18 -7 -21 7 -6 6 -70 -1 -152 -6 -64 19 -200 48 -262 61 -132
148 -196 265 -196 88 -1 122 5 152 26 13 9 29 17 35 17 6 0 32 22 59 49 38 38
48 57 52 88 4 48 -15 71 -68 79 -36 6 -98 -17 -98 -36 0 -6 -8 -10 -18 -10
-11 0 -27 -9 -37 -20 -33 -36 -111 -22 -128 23 -3 9 -12 17 -19 17 -7 0 -22
19 -32 43 -16 34 -20 71 -22 194 -3 167 1 180 53 170 15 -3 40 1 54 9 15 7 57
16 94 19 37 3 75 10 84 14 9 5 28 7 43 4 18 -3 44 4 78 23 56 31 75 55 66 87
-10 39 -40 49 -150 46 -214 -6 -272 -4 -287 11 -14 15 -20 102 -8 114 11 11 0
177 -13 203 -11 22 -79 59 -90 48z"/>
<path d="M5347 1774 c-2 -3 -20 -5 -40 -6 -48 -2 -75 -32 -83 -91 -5 -34 -2
-53 10 -71 19 -30 22 -102 4 -109 -13 -4 -11 -13 17 -80 7 -17 4 -18 -51 -12
-32 4 -66 8 -74 10 -8 3 -30 -9 -48 -26 -31 -28 -32 -31 -19 -57 8 -15 19 -40
23 -57 6 -18 21 -35 39 -44 17 -8 42 -20 57 -28 14 -7 32 -11 40 -8 10 4 13
-10 13 -62 0 -38 -2 -72 -5 -78 -5 -9 -5 -93 0 -105 1 -3 3 -16 5 -30 17 -161
86 -283 189 -337 44 -23 63 -27 136 -26 73 0 93 4 140 28 30 16 73 46 94 67
32 32 40 47 44 87 4 47 3 50 -26 65 -44 23 -80 20 -118 -9 -18 -14 -36 -25
-41 -25 -4 0 -19 -9 -33 -20 -14 -11 -39 -20 -55 -20 -35 0 -75 24 -75 46 0 8
-9 14 -20 14 -11 0 -19 3 -18 8 1 4 -3 17 -10 30 -19 33 -24 81 -24 226 -1
141 3 150 58 142 18 -2 36 0 41 5 5 5 21 12 34 14 85 15 168 26 192 26 30 -1
126 42 139 62 16 25 8 66 -15 82 -26 17 -58 18 -269 12 -81 -2 -147 -1 -146 2
0 3 -1 11 -2 16 -2 6 -3 76 -4 156 -1 128 -3 150 -19 167 -19 21 -71 44 -80
36z"/>
<path d="M13096 1769 c-69 -11 -105 -88 -72 -155 18 -39 21 -105 5 -121 -7 -7
-6 -21 5 -48 9 -21 14 -40 12 -42 -2 -2 -34 0 -71 5 -67 9 -68 8 -102 -21 -25
-22 -31 -33 -23 -42 6 -7 16 -32 23 -56 9 -32 21 -47 42 -58 17 -7 42 -20 58
-27 15 -7 33 -11 40 -8 13 5 15 -61 5 -191 -2 -27 -1 -54 3 -60 4 -5 8 -30 10
-55 4 -63 49 -184 79 -210 3 -3 16 -19 28 -36 34 -49 121 -88 195 -88 120 -1
177 22 255 100 37 38 42 49 42 88 0 40 -3 47 -30 61 -42 22 -78 19 -116 -10
-18 -14 -36 -25 -41 -25 -4 0 -19 -9 -33 -20 -14 -11 -39 -20 -55 -20 -35 0
-75 24 -75 46 0 8 -9 14 -22 14 -12 0 -19 3 -15 6 3 4 0 19 -8 34 -21 41 -25
73 -26 219 -1 146 2 155 55 148 16 -2 41 2 55 9 14 7 57 16 96 19 38 4 75 11
81 16 7 5 21 6 34 1 18 -7 37 -1 79 21 82 44 96 73 54 119 -16 18 -29 19 -213
15 -175 -4 -198 -3 -207 12 -13 21 -15 108 -2 116 5 4 7 10 4 15 -3 5 -6 43
-7 84 -1 96 -18 131 -66 143 -20 5 -55 6 -76 2z"/>
<path d="M1290 1713 c-35 -24 -47 -41 -64 -93 -24 -70 -28 -141 -9 -155 10 -8
18 -38 23 -93 5 -45 13 -89 18 -98 5 -10 6 -29 2 -45 -4 -15 -6 -51 -3 -80 6
-72 6 -68 -1 -119 -3 -25 -8 -81 -11 -125 -4 -59 -9 -83 -22 -92 -13 -10 -14
-17 -5 -37 12 -27 10 -54 -4 -64 -6 -4 -10 -33 -11 -64 -1 -42 -6 -64 -22 -84
-11 -15 -21 -32 -21 -39 0 -7 -7 -18 -15 -25 -12 -10 -13 -16 -4 -26 9 -11 7
-20 -7 -41 -10 -16 -19 -31 -19 -35 0 -4 -10 -16 -22 -28 -13 -11 -23 -27 -23
-35 0 -19 -46 -49 -100 -64 -25 -7 -48 -18 -51 -23 -8 -13 -268 -16 -346 -5
-58 8 -163 30 -238 51 -57 15 -119 13 -141 -4 -34 -29 -2 -125 46 -137 14 -3
33 -12 44 -19 10 -7 25 -10 33 -7 7 3 23 -3 33 -12 12 -11 34 -18 54 -17 26 1
35 -3 39 -19 5 -18 10 -19 44 -12 69 14 112 8 134 -21 l21 -26 30 21 c32 23
76 27 119 10 18 -6 35 -5 59 6 19 8 50 15 68 14 105 -2 279 93 338 185 19 30
43 58 53 64 12 6 17 17 14 29 -3 13 5 30 25 49 22 21 33 44 37 77 4 26 15 51
24 57 14 8 16 22 13 67 -2 36 1 66 11 84 11 21 12 36 4 67 -9 32 -8 49 7 90
10 28 15 57 12 65 -3 10 1 15 13 15 25 0 33 11 18 28 -9 11 -12 90 -14 301 -1
157 -6 300 -11 316 -6 19 -5 38 2 53 8 19 7 26 -7 33 -9 6 -29 23 -44 39 -35
37 -88 47 -123 23z"/>
<path d="M14252 1701 c-29 -10 -54 -20 -55 -22 -25 -35 -42 -68 -44 -84 -3
-29 16 -75 49 -117 l29 -38 39 20 c22 11 47 20 58 20 10 0 22 4 28 9 5 5 38
11 74 14 65 6 65 6 43 -12 -13 -11 -23 -22 -23 -25 0 -4 -7 -23 -16 -44 -11
-22 -18 -70 -20 -122 -2 -68 -13 -196 -19 -220 -8 -35 -19 -50 -38 -51 -39 0
-142 -11 -145 -14 -2 -2 17 -33 42 -69 36 -49 54 -66 79 -71 45 -10 48 -13 35
-34 -9 -15 -8 -24 5 -45 9 -14 17 -42 17 -63 0 -60 26 -131 68 -182 l38 -48
64 23 c36 13 73 33 83 45 25 31 22 85 -6 112 -22 20 -40 82 -37 127 0 8 1 31
2 52 0 31 4 37 29 42 16 3 35 3 44 0 8 -3 27 3 42 14 15 11 53 22 83 26 30 4
67 13 84 21 16 8 38 15 49 15 11 0 35 9 53 21 19 11 49 23 67 26 39 5 199 82
246 117 19 14 40 26 46 26 7 0 12 6 12 13 0 7 9 27 21 43 12 16 24 40 27 53 2
13 7 26 10 29 2 3 -5 21 -17 39 -11 19 -21 44 -22 56 -1 13 -17 30 -44 46 -23
14 -49 36 -58 49 -9 13 -25 22 -40 22 -18 0 -28 7 -35 28 -8 24 -15 28 -47 28
-20 0 -53 7 -72 15 -42 19 -97 39 -125 46 -11 3 -27 7 -35 11 -8 3 -31 7 -50
8 -59 5 -124 16 -135 24 -16 12 -148 25 -355 35 -54 2 -91 -2 -128 -14z m288
-189 c0 -4 -9 -8 -19 -8 -11 0 -17 4 -15 8 3 4 12 8 20 8 8 0 14 -4 14 -8z
m155 -21 c22 -5 50 -12 63 -15 13 -3 33 -8 45 -12 12 -5 29 -7 38 -6 9 2 32
-7 52 -18 29 -17 39 -19 54 -10 15 10 27 7 63 -13 25 -13 61 -30 80 -36 48
-16 104 -66 97 -85 -4 -9 -15 -16 -27 -16 -11 0 -25 -9 -32 -20 -7 -11 -16
-20 -21 -20 -4 0 -20 -9 -35 -20 -15 -11 -37 -22 -49 -24 -12 -3 -31 -9 -42
-15 -11 -6 -35 -11 -53 -11 -19 0 -38 -4 -43 -9 -21 -19 -122 -50 -132 -40 -6
6 -28 1 -60 -16 -28 -14 -58 -25 -66 -25 -17 0 -26 36 -16 60 4 8 12 26 18 40
7 14 13 35 15 45 2 11 13 22 26 25 21 5 22 6 5 20 -29 24 -37 58 -20 90 29 56
11 119 -39 141 -18 8 -17 9 9 5 17 -3 48 -9 70 -15z"/>
<path d="M8582 1639 c-18 -4 -41 -13 -50 -22 -9 -8 -48 -17 -87 -21 -93 -9
-135 -36 -153 -101 -12 -40 7 -77 53 -105 19 -12 41 -30 48 -41 13 -18 15 -17
46 16 35 39 51 44 51 18 1 -10 3 -45 6 -78 7 -84 5 -145 -7 -166 -6 -12 -5
-20 2 -24 6 -5 8 -22 3 -48 -20 -120 -20 -237 1 -317 20 -77 20 -81 11 -151
l-7 -56 55 3 c70 4 114 26 121 62 4 15 10 44 15 65 4 21 6 50 4 65 -12 75 -16
282 -6 282 6 0 14 -4 17 -10 3 -5 22 -10 42 -10 34 0 83 -31 141 -89 10 -10
42 -37 72 -61 30 -24 70 -59 88 -77 18 -19 59 -46 91 -62 31 -16 63 -37 70
-45 17 -20 61 -40 126 -56 28 -7 59 -18 70 -24 11 -5 38 -11 60 -11 37 -1 90
-26 107 -50 4 -6 16 -1 31 13 17 16 26 19 35 10 8 -8 18 -7 38 6 16 11 37 16
53 13 47 -9 124 15 187 59 l61 43 16 -34 c9 -18 40 -51 69 -73 l53 -40 22 20
c12 11 26 17 31 14 14 -9 176 76 210 110 8 9 32 27 53 40 21 13 43 33 49 44 6
11 17 20 26 20 8 0 17 8 21 18 3 9 12 24 18 32 39 48 11 130 -45 130 -34 0
-151 -53 -175 -80 -10 -11 -24 -20 -31 -20 -7 0 -28 -15 -46 -33 -23 -22 -43
-32 -63 -32 -30 0 -30 0 -30 55 1 89 14 179 39 271 20 75 23 103 14 136 -1 4
1 42 5 83 13 135 -16 176 -117 164 -85 -10 -96 -24 -95 -126 0 -46 -2 -121 -6
-168 -3 -47 -8 -107 -9 -135 -6 -92 -29 -235 -37 -235 -4 0 -11 5 -14 10 -4 6
-14 1 -26 -14 -26 -34 -84 -61 -154 -73 -85 -15 -175 -16 -175 -2 0 6 -9 9
-20 6 -13 -3 -21 1 -25 14 -6 17 -9 18 -35 4 -25 -13 -34 -13 -82 4 -74 25
-107 43 -157 85 -24 20 -48 33 -56 29 -8 -3 -15 -1 -15 5 0 6 -27 38 -61 71
-56 56 -66 75 -29 51 9 -5 19 -5 27 2 8 6 16 8 20 5 3 -4 12 -2 20 4 10 9 19
7 37 -4 23 -15 26 -15 58 13 18 16 41 30 51 30 9 0 55 13 102 29 46 17 98 32
114 34 18 3 48 25 82 61 87 91 94 118 58 193 -22 46 -110 128 -138 128 -9 1
-64 19 -122 42 -117 46 -109 45 -558 58 -95 3 -147 9 -152 16 -8 14 -70 18
-117 8z m596 -223 c35 -3 69 -9 75 -14 7 -5 37 -15 67 -21 30 -7 74 -21 96
-32 43 -20 76 -49 55 -49 -6 0 -34 -11 -63 -24 -72 -32 -86 -37 -138 -42 -25
-3 -68 -12 -97 -20 -28 -8 -89 -14 -136 -14 -47 0 -88 -4 -91 -8 -9 -15 -98
-2 -103 15 -4 12 -87 1 -106 -15 -23 -19 -38 32 -33 108 2 36 5 77 5 92 1 22
6 27 34 31 36 4 339 -1 435 -7z m-465 -261 c-3 -9 -8 -14 -10 -11 -3 3 -2 9 2
15 9 16 15 13 8 -4z"/>
<path d="M7420 1559 c-19 -6 -61 -32 -95 -58 -33 -27 -70 -53 -82 -60 -13 -6
-23 -18 -23 -27 0 -11 -51 -113 -67 -133 -2 -3 -14 6 -27 18 l-25 23 -15 -35
c-13 -31 -15 -80 -5 -112 2 -5 -3 -21 -10 -35 -8 -13 -15 -47 -16 -75 -1 -27
-9 -90 -19 -139 -19 -107 -20 -152 -1 -231 8 -33 14 -61 14 -63 1 -4 16 -23
61 -73 43 -50 90 -71 185 -84 28 -4 58 -14 68 -23 16 -14 19 -13 40 6 13 12
33 22 44 22 12 0 23 4 25 9 2 6 16 12 32 15 16 3 41 19 55 36 14 17 37 33 50
35 27 5 71 54 113 124 34 57 34 67 1 118 -23 36 -30 40 -57 36 -43 -7 -86 -31
-86 -48 0 -8 -4 -15 -9 -15 -5 0 -22 -11 -38 -24 -16 -14 -42 -28 -58 -32 -16
-4 -38 -18 -49 -31 -25 -29 -90 -37 -152 -20 -61 16 -77 51 -65 147 10 86 27
124 56 127 32 3 108 23 120 32 5 5 25 12 43 16 17 3 32 11 32 16 0 5 8 13 18
16 36 14 122 77 119 87 -3 6 6 25 19 43 13 17 28 43 34 57 5 14 14 26 19 26 5
0 8 38 7 84 -2 74 -5 89 -30 125 -33 47 -109 97 -158 105 -18 3 -49 0 -68 -5z
m60 -239 c-12 -23 -25 -38 -30 -35 -5 3 -18 -8 -28 -24 -10 -17 -22 -28 -25
-24 -4 3 -15 -1 -25 -10 -26 -23 -34 -10 -15 22 26 41 55 72 88 92 49 30 58
24 35 -21z"/>
<path d="M16470 1542 c-27 -14 -50 -29 -50 -33 0 -3 -25 -22 -55 -40 -36 -22
-57 -43 -61 -59 -4 -14 -13 -32 -20 -40 -7 -9 -20 -32 -29 -53 -18 -43 -28
-46 -50 -14 -13 19 -17 20 -25 7 -21 -32 -28 -80 -18 -116 7 -29 6 -39 -6 -53
-11 -12 -16 -37 -16 -74 0 -30 -5 -68 -10 -82 -6 -15 -12 -46 -13 -69 -2 -23
-6 -47 -10 -52 -9 -16 -1 -135 12 -168 7 -16 9 -36 7 -43 -3 -7 3 -21 14 -30
11 -10 20 -22 20 -28 1 -5 17 -26 38 -46 41 -40 101 -65 179 -75 29 -4 58 -13
64 -20 16 -20 32 -17 47 6 7 11 21 20 32 20 12 0 32 7 45 16 13 9 29 13 34 10
6 -4 20 7 32 23 12 16 36 35 53 42 31 13 106 84 106 102 0 5 9 20 20 34 11 14
20 38 20 53 0 35 -41 95 -63 94 -9 -1 -27 -2 -38 -3 -12 0 -36 -17 -55 -36
-18 -19 -37 -35 -42 -35 -5 0 -17 -9 -26 -19 -10 -11 -31 -23 -47 -26 -16 -4
-35 -15 -42 -25 -39 -56 -188 -45 -220 17 -26 49 8 241 41 228 7 -2 25 1 40 7
15 6 36 12 47 13 60 8 255 124 255 152 0 8 11 29 24 46 13 18 27 42 31 55 3
12 11 22 17 22 6 0 9 32 6 89 -3 82 -5 92 -34 127 -40 50 -116 96 -165 100
-26 2 -54 -6 -89 -24z m110 -188 c0 -16 -43 -74 -55 -74 -8 0 -16 -8 -19 -17
-3 -10 -24 -26 -46 -35 l-41 -17 22 35 c31 50 75 97 95 100 9 1 18 5 22 8 7 8
22 8 22 0z"/>
<path d="M18193 1561 c-27 -7 -134 -78 -153 -102 -3 -4 -15 -9 -27 -13 -13 -4
-23 -14 -23 -21 0 -16 -69 -145 -77 -145 -3 0 -13 9 -23 20 -28 33 -45 2 -45
-85 0 -46 -5 -78 -14 -88 -8 -10 -11 -31 -9 -54 3 -21 1 -51 -4 -68 -31 -104
-38 -222 -18 -305 32 -136 109 -203 260 -225 25 -4 56 -14 69 -22 23 -15 26
-15 39 5 8 12 22 22 32 22 10 0 31 7 46 15 16 8 36 15 45 15 9 0 22 11 29 25
12 22 32 35 68 41 15 3 26 15 82 96 48 68 51 106 15 154 -20 26 -30 32 -53 28
-50 -9 -61 -15 -82 -45 -12 -16 -26 -29 -31 -29 -5 0 -20 -9 -32 -21 -12 -11
-35 -23 -50 -26 -15 -3 -32 -14 -37 -23 -30 -56 -195 -43 -219 18 -17 45 -2
202 20 202 5 0 8 5 7 11 -2 6 8 13 22 15 58 7 96 18 115 30 11 8 26 14 35 14
24 0 185 113 185 130 0 9 9 28 20 42 45 59 58 93 59 158 2 88 -26 142 -97 192
-57 39 -104 51 -154 39z m67 -215 c0 -7 -7 -19 -15 -26 -9 -7 -13 -15 -10 -18
3 -3 -9 -13 -25 -23 -17 -11 -30 -23 -30 -29 0 -5 -9 -10 -20 -10 -10 0 -23
-8 -29 -17 -5 -10 -12 -15 -16 -11 -16 15 67 122 107 138 32 12 38 12 38 -4z"/>
<path d="M11140 1531 c-8 -5 -31 -11 -52 -14 -20 -2 -47 -12 -59 -21 -13 -9
-31 -16 -41 -16 -9 0 -22 -9 -28 -21 -7 -11 -24 -25 -40 -31 -56 -19 -239
-273 -240 -331 0 -15 -9 -45 -20 -66 -10 -22 -21 -58 -23 -82 -2 -24 -10 -66
-17 -92 -20 -76 1 -173 50 -236 64 -81 75 -87 171 -85 72 1 93 5 144 31 58 29
123 71 214 140 47 35 215 195 245 233 15 18 21 21 24 10 2 -8 6 -22 9 -30 17
-45 30 -297 19 -360 -1 -8 -5 -24 -9 -35 -3 -11 -9 -31 -12 -45 -15 -73 -19
-85 -27 -91 -5 -3 -10 -15 -13 -27 -6 -31 -20 -54 -55 -87 -29 -28 -32 -29
-42 -11 -9 17 -11 16 -25 -12 -14 -28 -38 -40 -98 -47 -11 -1 -39 -5 -62 -9
-29 -5 -43 -4 -43 3 0 7 -16 8 -44 5 -54 -8 -86 8 -86 41 0 14 -5 25 -11 25
-6 0 -9 9 -6 20 7 26 5 26 -78 35 -38 4 -72 7 -75 7 -3 1 -17 -4 -32 -10 -39
-16 -58 -50 -54 -97 5 -57 22 -87 64 -114 20 -13 55 -36 77 -51 55 -36 113
-51 214 -55 163 -6 299 34 404 120 50 41 117 128 117 153 0 5 10 32 22 59 26
58 24 52 33 149 3 44 8 94 11 112 3 18 7 78 8 132 1 55 5 102 8 105 3 4 0 30
-8 58 -7 29 -12 59 -11 67 0 8 -3 32 -7 52 -5 23 -4 50 3 70 9 26 9 34 -3 40
-8 5 -18 30 -22 56 -3 26 -11 56 -17 67 -6 11 -12 25 -13 30 -29 156 -51 201
-107 226 -39 17 -100 -2 -115 -36 l-12 -25 -37 36 c-21 20 -47 39 -58 44 -35
13 -119 20 -135 11z m247 -183 c-3 -8 -6 -5 -6 6 -1 11 2 17 5 13 3 -3 4 -12
1 -19z m-183 -18 c15 -5 32 -21 38 -36 11 -24 16 -26 56 -21 33 3 50 12 66 32
l21 27 13 -36 c15 -41 7 -77 -35 -155 -28 -53 -91 -132 -102 -128 -5 1 -25
-19 -45 -45 -34 -44 -46 -53 -69 -49 -5 1 -11 -8 -14 -19 -3 -11 -11 -20 -17
-20 -7 0 -29 -16 -50 -35 -21 -19 -44 -35 -50 -35 -7 0 -30 -15 -52 -33 -21
-19 -61 -40 -88 -47 -47 -13 -50 -13 -68 9 -25 31 -23 75 7 163 14 40 25 79
25 87 0 8 7 22 15 31 8 9 16 25 18 37 1 11 10 32 20 46 9 15 17 29 17 33 0 12
55 64 68 64 7 0 20 13 30 30 25 40 83 78 115 75 18 -2 27 2 30 16 6 22 15 23
51 9z"/>
<path d="M3377 1505 c-90 -20 -176 -55 -224 -92 -24 -18 -50 -33 -58 -33 -8 0
-15 -8 -15 -17 0 -10 -11 -28 -23 -40 -86 -81 -47 -286 69 -368 27 -19 59 -35
71 -35 24 0 118 -44 146 -68 10 -9 37 -17 60 -18 64 -3 110 -14 128 -30 8 -7
24 -14 34 -14 24 0 7 -20 -21 -25 -11 -2 -20 -4 -21 -5 -2 -2 -6 -3 -10 -4 -5
-1 -13 -5 -20 -9 -16 -10 -148 -21 -253 -22 -63 0 -84 3 -82 13 1 6 -5 12 -13
12 -8 0 -22 11 -31 25 -9 14 -20 22 -25 20 -4 -3 -23 1 -41 8 -28 12 -38 12
-68 -1 -19 -7 -43 -21 -53 -30 -14 -13 -21 -13 -41 -3 -29 16 -95 10 -156 -14
-53 -21 -85 -16 -128 20 -23 19 -29 32 -27 55 1 17 -1 32 -5 35 -4 3 -8 24 -9
47 0 24 -3 53 -5 65 -3 13 -1 25 4 28 5 3 8 18 8 33 -1 15 9 48 21 74 11 26
21 52 21 58 0 7 9 24 19 39 11 15 26 52 34 83 l15 57 -32 36 c-31 36 -80 55
-119 47 -15 -3 -97 -154 -97 -179 0 -4 -16 -30 -35 -57 -19 -27 -33 -52 -30
-56 2 -3 -11 -12 -30 -19 -19 -6 -37 -21 -40 -31 -4 -11 -13 -20 -21 -20 -8 0
-14 -6 -14 -13 0 -12 -53 -67 -63 -67 -2 0 -26 -21 -53 -47 -27 -27 -66 -57
-86 -68 -21 -11 -38 -23 -38 -27 0 -5 -8 -8 -17 -8 -10 0 -26 -14 -35 -31 -10
-17 -22 -28 -27 -24 -10 5 -7 36 4 54 3 5 0 22 -6 38 -13 33 -13 196 0 221 5
9 8 60 8 112 0 52 3 112 7 132 12 54 -19 93 -78 102 -90 14 -138 -37 -119
-125 7 -36 6 -70 -2 -120 -7 -39 -10 -88 -8 -110 4 -28 0 -46 -11 -58 -9 -10
-13 -21 -9 -24 3 -4 8 -65 9 -135 3 -151 7 -182 28 -194 9 -5 16 -17 16 -27 0
-22 50 -70 78 -76 11 -2 30 -8 40 -14 16 -8 30 -6 64 9 23 11 49 20 57 20 15
0 43 24 179 149 52 47 100 98 107 112 8 15 25 29 39 33 19 5 23 11 18 28 -4
15 -2 19 7 14 8 -5 12 -28 10 -60 -1 -28 2 -59 6 -68 4 -10 5 -25 1 -33 -3 -9
3 -23 14 -32 11 -10 25 -32 30 -49 12 -34 95 -105 140 -119 40 -13 112 -12
158 1 23 7 44 14 47 14 29 5 78 36 104 65 21 24 31 30 31 19 0 -34 39 -71 97
-92 49 -17 183 -34 258 -33 11 1 43 0 70 0 28 0 59 0 70 1 11 1 51 1 88 0 44
0 66 3 62 10 -3 6 4 10 18 10 13 0 27 3 31 8 8 7 13 8 40 11 8 0 21 8 30 16 8
9 19 15 23 14 22 -4 32 4 58 43 16 24 37 55 47 71 27 39 16 124 -18 139 -13 6
-31 22 -39 34 -23 36 -85 62 -307 129 -49 15 -90 31 -94 36 -3 5 -16 9 -30 9
-51 0 -124 53 -124 91 0 39 79 104 140 115 8 2 23 7 35 12 58 27 79 32 118 26
23 -4 50 -13 59 -21 25 -22 85 -21 107 3 11 10 26 43 35 73 l16 53 -48 47 -48
47 -84 1 c-47 1 -111 -5 -143 -12z"/>
<path d="M15572 1491 c-69 -12 -77 -27 -74 -131 1 -48 -2 -99 -7 -113 -6 -15
-6 -28 0 -34 6 -6 6 -28 0 -59 -5 -27 -12 -83 -15 -124 -4 -41 -9 -86 -12
-100 -3 -14 -6 -71 -5 -128 1 -128 25 -188 98 -241 46 -34 47 -34 76 -18 16
10 33 14 39 11 5 -3 17 1 26 9 9 8 29 17 45 21 15 4 36 15 47 26 11 11 24 20
29 20 11 0 118 81 151 115 14 14 31 25 38 25 6 0 12 5 12 11 0 6 9 22 20 36
41 52 12 133 -47 133 -34 0 -172 -65 -179 -85 -4 -8 -14 -15 -23 -15 -10 0
-30 -14 -44 -30 -15 -16 -30 -30 -35 -31 -4 0 -19 -2 -34 -4 -30 -4 -37 8 -33
51 19 169 24 204 36 242 16 50 20 79 25 172 10 187 9 196 -21 225 -25 26 -39
28 -113 16z"/>
<path d="M17213 1491 c-49 -12 -120 -75 -142 -127 -11 -24 -26 -47 -34 -50 -8
-3 -22 -22 -30 -42 -9 -20 -26 -59 -38 -87 -13 -27 -23 -59 -24 -70 -1 -11 -7
-33 -14 -49 -6 -16 -13 -43 -14 -60 -2 -17 -7 -40 -13 -51 -5 -11 -9 -31 -9
-45 1 -47 17 -155 25 -165 4 -5 13 -26 19 -46 15 -48 83 -116 140 -141 51 -23
172 -29 208 -10 11 6 23 8 27 5 9 -9 205 91 250 128 40 34 126 145 126 164 0
7 9 20 20 30 25 22 27 85 4 120 -17 27 -86 58 -109 49 -8 -3 -15 -14 -15 -24
0 -44 -91 -162 -138 -180 -18 -6 -36 -18 -39 -26 -3 -8 -13 -14 -22 -14 -9 0
-35 -9 -56 -21 -69 -36 -185 -54 -185 -28 0 5 -7 9 -16 9 -8 0 -20 14 -25 30
-6 16 -15 30 -20 30 -11 0 -12 44 -2 54 4 4 8 24 9 44 2 67 25 143 52 175 9 9
16 25 17 35 6 60 77 152 117 152 26 0 44 -36 47 -95 1 -18 12 -39 29 -55 15
-14 34 -36 42 -48 14 -22 18 -23 55 -13 22 6 52 21 67 34 l27 22 -11 100 c-12
110 -48 197 -84 203 -10 2 -47 17 -81 33 -69 34 -113 42 -160 30z"/>
</g>
</svg>
